<svg width="34" height="34" viewBox="0 0 34 34" fill="none" xmlns="http://www.w3.org/2000/svg">
<g filter="url(#filter0_d)">
<path d="M29.2897 10.6216H25.1255V9.28368V6.99094C25.1255 3.71299 22.4204 0.837836 18.6933 0.154599C17.5694 -0.0514566 16.4301 -0.0516094 15.3065 0.154599C11.5796 0.837836 8.87452 3.71299 8.87452 6.9911V9.28383V10.6217H4.71026C4.31802 10.6217 4 10.8953 4 11.2327C4 11.5701 4.31802 11.8437 4.71026 11.8437H29.2897C29.682 11.8437 30 11.5701 30 11.2327C30 10.8953 29.682 10.6216 29.2897 10.6216ZM18.3974 1.34984C21.4728 1.91363 23.7051 4.2861 23.7051 6.9911V8.67284H10.295V6.9911C10.295 4.2861 12.5272 1.91363 15.6028 1.34984C16.5297 1.17999 17.4703 1.17999 18.3974 1.34984Z" fill="#323232"/>
<path d="M24.867 19.2676C24.6116 19.1692 24.3123 19.209 24.1036 19.3694L17.0635 24.778H16.9373L9.89716 19.3694C9.68835 19.2089 9.38933 19.1689 9.13381 19.2676C8.87847 19.3661 8.71387 19.5843 8.71387 19.8252V25.389C8.71387 25.7265 9.03189 26 9.42413 26H16.6629C16.6629 26 16.6651 26 16.6663 26H16.6695H17.3348H18.0286H24.577C24.9693 26 25.2873 25.7265 25.2873 25.389V19.8252C25.2869 19.5843 25.1225 19.3659 24.867 19.2676Z" fill="#323232"/>
<path d="M12.0973 17.6557H13.3401C14.837 17.6557 16.0846 16.7314 16.3065 15.4581L16.584 13.8664H17.4165L17.694 15.4581C17.916 16.7314 19.1635 17.6557 20.6604 17.6557H21.9032C23.4509 17.6557 24.7339 16.6567 24.8881 15.3321L25.2004 12.6442H24.4156H17.2036H16.7971H9.58513H8.80029L9.11263 15.3321C9.26658 16.6569 10.5497 17.6557 12.0973 17.6557Z" fill="#323232"/>
</g>
<defs>
<filter id="filter0_d" x="0" y="0" width="34" height="34" filterUnits="userSpaceOnUse" color-interpolation-filters="sRGB">
<feFlood flood-opacity="0" result="BackgroundImageFix"/>
<feColorMatrix in="SourceAlpha" type="matrix" values="0 0 0 0 0 0 0 0 0 0 0 0 0 0 0 0 0 0 127 0"/>
<feOffset dy="4"/>
<feGaussianBlur stdDeviation="2"/>
<feColorMatrix type="matrix" values="0 0 0 0 0 0 0 0 0 0 0 0 0 0 0 0 0 0 0.25 0"/>
<feBlend mode="normal" in2="BackgroundImageFix" result="effect1_dropShadow"/>
<feBlend mode="normal" in="SourceGraphic" in2="effect1_dropShadow" result="shape"/>
</filter>
</defs>
</svg>
