<svg width="53" height="41" viewBox="0 0 53 41" fill="none" xmlns="http://www.w3.org/2000/svg">
<path d="M42.8322 6.40089C37.5195 2.86211 30.2604 4.15156 26.5978 9.28463C23.9651 17.9716 26.5978 37.0537 26.5978 37.0537C26.5978 37.0537 39.6393 28.1931 45.8169 22.0864C49.4795 16.9533 48.1449 9.93967 42.8322 6.40089ZM33.8413 19.0015C31.9468 17.7396 31.4693 15.2299 32.7753 13.3995C34.0814 11.5691 36.6789 11.1077 38.5733 12.3696C40.4678 13.6315 40.9453 16.1412 39.6393 17.9716C38.3332 19.802 35.7357 20.2634 33.8413 19.0015Z" fill="#EF1204"/>
<path d="M22.2081 19.0809C19.757 17.3533 13.5574 18.1388 13.5574 20.7979C13.5574 22.9373 17.486 23.7246 18.8035 23.7147C18.8035 23.7147 17.7915 27.1138 14.3538 27.0217C7.09761 26.8272 6.76154 13.7571 14.3513 12.5789C17.7851 12.0459 19.9282 14.4548 21.3288 13.148C22.5101 12.0459 21.9761 9.35426 19.3515 6.86365C17.4043 5.01574 14.9559 4.03836 12.3554 4.03931C5.54719 4.04176 -0.0209607 11.366 0.102604 20.1496C-0.0209607 28.9332 5.54713 36.2575 12.3554 36.2599C18.8027 36.2623 23.4443 30.1335 23.4443 22.1217C23.4443 21.3165 23.4584 19.962 22.2081 19.0809V19.0809Z" fill="white"/>
</svg>
