<svg viewBox="1 1 411 284" fill="none" xmlns="http://www.w3.org/2000/svg">
<path d="M1 20C1 8.95429 9.9543 0 21 0H392C403.046 0 412 8.9543 412 20V250.5C329 331.888 265 244.988 231 214.096C197 183.204 71.3318 48.8053 1 125.071V20Z" fill="#F05252"/>
<path d="M1 20C1 8.95431 9.9543 0 21 0H392C403.046 0 412 8.95431 412 20V190C329 258.5 240.5 216 206.5 190C172.5 164 71.3318 125.811 1 190V20Z" fill="#5B5B5B"/>
<path d="M203 187C134.092 116.265 89.8576 96.4272 0.630997 97.8374" stroke="#F05252"/>
<rect x="1" width="411" height="90" fill="#5B5B5B"/>
</svg>
