<?xml version="1.0" standalone="no"?>
<!DOCTYPE svg PUBLIC "-//W3C//DTD SVG 20010904//EN"
 "http://www.w3.org/TR/2001/REC-SVG-20010904/DTD/svg10.dtd">
<svg version="1.0" xmlns="http://www.w3.org/2000/svg"
 width="848.000000pt" height="848.000000pt" viewBox="0 0 848.000000 848.000000"
 preserveAspectRatio="xMidYMid meet">
<metadata>
Created by potrace 1.11, written by Peter Selinger 2001-2013
</metadata>
<g transform="translate(0.000000,848.000000) scale(0.100000,-0.100000)"
fill="#000000" stroke="none">
<path d="M1937 6874 c-1 -1 -40 -4 -87 -7 -47 -4 -107 -11 -135 -16 -27 -6
-61 -13 -75 -15 -48 -8 -85 -19 -97 -29 -7 -5 -13 -7 -13 -3 0 11 -245 -89
-272 -112 -10 -8 -18 -12 -18 -8 0 4 -17 -5 -37 -19 -21 -14 -43 -25 -49 -25
-7 0 -14 -3 -16 -7 -4 -9 -65 -53 -73 -53 -3 0 -11 -5 -18 -10 -7 -6 -37 -29
-67 -52 -143 -111 -291 -262 -403 -413 -37 -49 -71 -95 -77 -102 -5 -7 -10
-14 -10 -17 0 -2 -17 -31 -37 -63 -21 -32 -44 -67 -50 -78 -17 -27 -127 -250
-148 -300 -51 -118 -126 -341 -140 -414 -2 -9 -8 -35 -15 -59 -6 -24 -13 -56
-15 -72 -2 -16 -6 -38 -10 -49 -3 -10 -8 -34 -11 -52 -2 -19 -6 -43 -8 -54 -2
-11 -7 -44 -11 -74 -3 -30 -9 -63 -11 -75 -21 -111 -21 -677 0 -792 2 -10 7
-46 11 -79 9 -75 10 -79 20 -140 10 -58 9 -51 18 -90 4 -16 9 -39 11 -50 24
-116 101 -358 153 -480 34 -79 128 -269 159 -320 13 -22 27 -47 31 -55 8 -17
113 -172 122 -180 3 -3 17 -21 31 -40 26 -38 49 -65 125 -148 158 -174 338
-316 526 -414 72 -38 120 -59 244 -108 64 -25 246 -65 345 -75 63 -6 255 -7
286 -1 11 2 46 7 77 10 101 11 327 71 335 88 2 5 11 8 21 8 9 0 27 7 39 16 12
8 22 12 22 9 0 -3 10 0 23 7 12 7 25 11 30 10 4 -1 7 2 7 7 0 5 8 11 18 14 46
16 196 114 282 186 97 81 262 254 298 314 9 15 20 27 24 27 4 0 8 7 8 15 0 8
5 15 10 15 6 0 10 6 10 14 0 8 3 16 8 18 15 6 83 122 147 248 15 30 31 63 36
72 5 10 9 24 9 31 0 7 5 18 11 24 26 26 133 360 153 478 3 17 7 41 10 55 14
63 16 73 30 175 15 107 19 176 20 365 1 239 -3 271 -49 366 -42 86 -112 159
-196 204 -67 35 -191 80 -224 80 -12 0 -25 3 -29 7 -3 4 -19 8 -34 9 -15 2
-52 6 -82 9 -107 12 -358 6 -401 -10 -7 -3 -27 -7 -44 -9 -47 -7 -82 -15 -112
-27 -16 -6 -28 -10 -28 -9 0 1 -9 -2 -20 -5 -37 -13 -50 -16 -53 -16 -6 2
-124 -61 -144 -77 -121 -97 -153 -152 -153 -262 1 -115 47 -188 173 -274 94
-64 294 -142 417 -161 11 -2 35 -6 53 -9 75 -14 93 -16 132 -18 26 -1 44 -7
47 -15 13 -34 -103 -225 -190 -314 -100 -101 -263 -184 -381 -193 -24 -2 -48
-6 -52 -8 -12 -6 -118 -2 -174 6 -262 40 -476 186 -615 419 -19 32 -35 62 -35
68 0 5 -4 9 -10 9 -5 0 -10 8 -10 18 0 10 -4 22 -9 28 -9 9 -68 181 -77 224
-19 96 -24 130 -31 198 -16 183 -6 306 42 532 2 8 15 49 30 90 15 41 29 84 32
95 4 11 9 22 13 25 3 3 14 23 24 45 82 178 251 355 431 450 44 23 169 73 203
80 12 3 32 7 45 10 169 39 392 26 598 -35 41 -12 74 -22 74 -21 0 1 34 -10 75
-24 232 -80 349 -78 436 6 35 34 88 134 79 149 -3 5 -1 11 3 14 10 6 8 140 -3
201 -4 22 -13 55 -20 73 -8 17 -12 32 -10 32 2 0 -12 35 -31 78 -34 73 -130
228 -163 264 -9 9 -27 31 -41 49 -76 99 -272 269 -405 351 -72 44 -177 98
-191 98 -8 0 -14 4 -14 9 0 5 -10 11 -22 14 -13 3 -54 16 -93 30 -81 30 -182
57 -239 63 -22 3 -43 7 -46 9 -12 7 -276 25 -283 19z"/>
<path d="M5708 6815 c-2 -2 -37 -5 -78 -8 -80 -7 -139 -14 -180 -22 -14 -3
-38 -8 -55 -11 -44 -8 -60 -12 -60 -14 0 -1 -11 -3 -25 -6 -14 -2 -45 -11 -70
-19 -25 -8 -47 -15 -50 -15 -9 1 -193 -77 -260 -109 -163 -80 -328 -199 -477
-347 -62 -61 -113 -114 -113 -117 0 -6 -29 -43 -56 -71 -23 -24 -51 -103 -69
-199 -2 -9 -6 -21 -9 -25 -2 -4 -7 -27 -11 -52 -4 -25 -8 -47 -10 -50 -3 -5
-12 -55 -20 -110 -2 -14 -6 -40 -9 -57 -18 -102 -27 -176 -51 -403 -11 -109
-25 -345 -30 -510 -5 -185 -5 -685 0 -850 6 -199 14 -383 20 -485 11 -184 15
-242 21 -325 3 -47 7 -109 9 -138 2 -29 6 -83 10 -120 3 -37 8 -94 11 -127 2
-33 7 -85 10 -115 2 -30 6 -77 9 -105 2 -27 6 -70 9 -95 3 -25 8 -76 11 -115
4 -38 8 -81 10 -95 3 -14 7 -53 10 -85 3 -33 7 -76 10 -95 3 -19 8 -62 11 -95
3 -33 7 -71 10 -85 2 -14 7 -50 10 -80 4 -30 8 -57 10 -59 4 -4 81 46 249 162
44 31 85 59 90 64 6 5 55 40 110 78 55 38 106 75 113 81 6 7 21 16 32 19 11 3
20 10 20 15 0 5 15 17 33 26 17 9 34 20 37 23 3 4 61 47 130 96 69 49 128 94
132 100 5 6 8 7 8 0 0 -5 4 -4 8 3 5 6 48 41 98 77 49 35 100 73 113 82 44 32
495 372 525 395 54 43 111 88 121 96 32 24 192 148 202 157 15 12 16 13 113
90 41 33 77 62 80 65 3 3 25 21 50 40 25 19 50 40 55 46 6 6 33 28 60 50 28
21 52 42 55 45 3 3 38 34 79 68 97 81 229 195 315 275 263 241 290 274 397
486 60 120 125 307 145 417 26 142 33 234 29 393 -4 200 -4 198 -69 475 -1 6
-8 20 -14 33 -7 12 -9 22 -5 22 4 0 2 5 -5 12 -7 7 -12 20 -12 30 0 10 -4 26
-10 36 -5 9 -33 67 -63 128 -56 114 -123 226 -138 232 -5 2 -9 8 -9 14 0 6
-19 33 -42 61 -24 29 -50 60 -58 71 -44 57 -236 236 -278 260 -9 5 -26 18 -37
29 -61 57 -358 214 -480 253 -88 28 -210 62 -213 59 -2 -2 -15 0 -28 5 -31 12
-141 30 -219 36 -68 6 -264 12 -267 9z m223 -1176 c26 -6 53 -12 60 -13 47
-10 157 -66 210 -106 39 -30 105 -95 137 -136 26 -34 88 -159 96 -195 21 -94
24 -124 21 -204 -2 -49 -6 -101 -10 -115 -4 -14 -9 -37 -12 -52 -3 -16 -9 -28
-14 -28 -5 0 -9 -8 -9 -18 0 -10 -13 -39 -30 -65 -16 -26 -30 -50 -30 -52 0
-17 -123 -140 -162 -163 -16 -9 -28 -20 -28 -24 0 -4 -9 -8 -19 -8 -11 0 -21
-4 -23 -8 -5 -13 -131 -61 -190 -73 -90 -17 -239 -13 -313 10 -293 88 -486
331 -488 616 -1 54 15 160 29 198 23 60 57 130 71 145 7 7 13 18 13 23 0 9
116 128 153 156 36 28 146 82 201 98 112 32 238 37 337 14z"/>
</g>
</svg>
